<svg width="24" height="24" viewBox="0 0 24 24" fill="none" xmlns="http://www.w3.org/2000/svg">
<path d="M10.5193 20.7332C6.36658 20.7332 3 17.3666 3 13.2129" stroke="#EEE9FD" stroke-width="1.5" stroke-linecap="round" stroke-linejoin="round"/>
<path d="M13.4805 3.14062C17.6332 3.14062 20.9998 6.50722 20.9998 10.6609" stroke="#EEE9FD" stroke-width="1.5" stroke-linecap="round" stroke-linejoin="round"/>
<path fill-rule="evenodd" clip-rule="evenodd" d="M18.4072 14.1582H16.5673C15.2245 14.1582 14.1367 15.247 14.1367 16.5897V18.4287C14.1367 19.7724 15.2245 20.8602 16.5673 20.8602H18.4072C19.75 20.8602 20.8387 19.7724 20.8387 18.4287V16.5897C20.8387 15.247 19.75 14.1582 18.4072 14.1582Z" stroke="#EEE9FD" stroke-width="1.5" stroke-linecap="round" stroke-linejoin="round"/>
<path fill-rule="evenodd" clip-rule="evenodd" d="M7.38964 3.14062H5.54969C4.20695 3.14062 3.11914 4.22942 3.11914 5.57216V7.4121C3.11914 8.75484 4.20695 9.84266 5.54969 9.84266H7.38964C8.73238 9.84266 9.82116 8.75484 9.82116 7.4121V5.57216C9.82116 4.22942 8.73238 3.14062 7.38964 3.14062Z" stroke="#EEE9FD" stroke-width="1.5" stroke-linecap="round" stroke-linejoin="round"/>
</svg>
